<mxfile host="app.diagrams.net" agent="Mozilla/5.0 (Windows NT 10.0; Win64; x64) AppleWebKit/537.36 (KHTML, like Gecko) Chrome/137.0.0.0 Safari/537.36" version="26.1.0">
  <diagram name="Página-1" id="dTBYpsWQFZwytrFaCJFg">
    <mxGraphModel dx="1388" dy="1818" grid="1" gridSize="10" guides="1" tooltips="1" connect="1" arrows="1" fold="1" page="1" pageScale="1" pageWidth="827" pageHeight="1169" math="0" shadow="0">
      <root>
        <mxCell id="0" />
        <mxCell id="1" parent="0" />
        <mxCell id="-HPxGVENbK4zKSCoRWja-1" value="Usuário" style="whiteSpace=wrap;html=1;align=center;" vertex="1" parent="1">
          <mxGeometry x="320" y="660" width="100" height="40" as="geometry" />
        </mxCell>
        <mxCell id="-HPxGVENbK4zKSCoRWja-2" value="id" style="ellipse;whiteSpace=wrap;html=1;" vertex="1" parent="1">
          <mxGeometry x="430" y="665" width="30" height="10" as="geometry" />
        </mxCell>
        <mxCell id="-HPxGVENbK4zKSCoRWja-3" value="nome" style="ellipse;whiteSpace=wrap;html=1;" vertex="1" parent="1">
          <mxGeometry x="430" y="675" width="40" height="20" as="geometry" />
        </mxCell>
        <mxCell id="-HPxGVENbK4zKSCoRWja-4" value="email" style="ellipse;whiteSpace=wrap;html=1;" vertex="1" parent="1">
          <mxGeometry x="430" y="715" width="50" height="20" as="geometry" />
        </mxCell>
        <mxCell id="-HPxGVENbK4zKSCoRWja-5" value="senha" style="ellipse;whiteSpace=wrap;html=1;" vertex="1" parent="1">
          <mxGeometry x="430" y="735" width="40" height="20" as="geometry" />
        </mxCell>
        <mxCell id="-HPxGVENbK4zKSCoRWja-6" value="telefone" style="ellipse;whiteSpace=wrap;html=1;" vertex="1" parent="1">
          <mxGeometry x="430" y="755" width="50" height="20" as="geometry" />
        </mxCell>
        <mxCell id="-HPxGVENbK4zKSCoRWja-7" value="PK" style="text;html=1;align=center;verticalAlign=middle;resizable=0;points=[];autosize=1;strokeColor=none;fillColor=none;" vertex="1" parent="1">
          <mxGeometry x="460" y="655" width="40" height="30" as="geometry" />
        </mxCell>
        <mxCell id="-HPxGVENbK4zKSCoRWja-8" value="M" style="text;html=1;align=center;verticalAlign=middle;resizable=0;points=[];autosize=1;strokeColor=none;fillColor=none;" vertex="1" parent="1">
          <mxGeometry x="465" y="670" width="30" height="30" as="geometry" />
        </mxCell>
        <mxCell id="-HPxGVENbK4zKSCoRWja-9" value="M UK1" style="text;html=1;align=center;verticalAlign=middle;resizable=0;points=[];autosize=1;strokeColor=none;fillColor=none;" vertex="1" parent="1">
          <mxGeometry x="470" y="710" width="60" height="30" as="geometry" />
        </mxCell>
        <mxCell id="-HPxGVENbK4zKSCoRWja-10" value="M" style="text;html=1;align=center;verticalAlign=middle;resizable=0;points=[];autosize=1;strokeColor=none;fillColor=none;" vertex="1" parent="1">
          <mxGeometry x="470" y="730" width="30" height="30" as="geometry" />
        </mxCell>
        <mxCell id="-HPxGVENbK4zKSCoRWja-11" value="M UK2" style="text;html=1;align=center;verticalAlign=middle;resizable=0;points=[];autosize=1;strokeColor=none;fillColor=none;" vertex="1" parent="1">
          <mxGeometry x="470" y="750" width="60" height="30" as="geometry" />
        </mxCell>
        <mxCell id="-HPxGVENbK4zKSCoRWja-12" value="" style="endArrow=none;html=1;rounded=0;exitX=1;exitY=0.5;exitDx=0;exitDy=0;entryX=0;entryY=0.5;entryDx=0;entryDy=0;" edge="1" parent="1" source="-HPxGVENbK4zKSCoRWja-1" target="-HPxGVENbK4zKSCoRWja-3">
          <mxGeometry relative="1" as="geometry">
            <mxPoint x="290" y="540" as="sourcePoint" />
            <mxPoint x="450" y="540" as="targetPoint" />
          </mxGeometry>
        </mxCell>
        <mxCell id="-HPxGVENbK4zKSCoRWja-13" value="" style="endArrow=none;html=1;rounded=0;exitX=1;exitY=0.25;exitDx=0;exitDy=0;entryX=0;entryY=0;entryDx=0;entryDy=0;" edge="1" parent="1" source="-HPxGVENbK4zKSCoRWja-1" target="-HPxGVENbK4zKSCoRWja-2">
          <mxGeometry relative="1" as="geometry">
            <mxPoint x="290" y="540" as="sourcePoint" />
            <mxPoint x="450" y="540" as="targetPoint" />
          </mxGeometry>
        </mxCell>
        <mxCell id="-HPxGVENbK4zKSCoRWja-14" value="" style="endArrow=none;html=1;rounded=0;exitX=0.75;exitY=1;exitDx=0;exitDy=0;entryX=0;entryY=0.5;entryDx=0;entryDy=0;" edge="1" parent="1" source="-HPxGVENbK4zKSCoRWja-1" target="-HPxGVENbK4zKSCoRWja-6">
          <mxGeometry relative="1" as="geometry">
            <mxPoint x="440" y="700" as="sourcePoint" />
            <mxPoint x="450" y="720" as="targetPoint" />
            <Array as="points" />
          </mxGeometry>
        </mxCell>
        <mxCell id="-HPxGVENbK4zKSCoRWja-15" value="" style="endArrow=none;html=1;rounded=0;exitX=0.83;exitY=0.967;exitDx=0;exitDy=0;entryX=0;entryY=0.5;entryDx=0;entryDy=0;exitPerimeter=0;" edge="1" parent="1" source="-HPxGVENbK4zKSCoRWja-1" target="-HPxGVENbK4zKSCoRWja-5">
          <mxGeometry relative="1" as="geometry">
            <mxPoint x="290" y="540" as="sourcePoint" />
            <mxPoint x="450" y="540" as="targetPoint" />
          </mxGeometry>
        </mxCell>
        <mxCell id="-HPxGVENbK4zKSCoRWja-16" value="o" style="ellipse;whiteSpace=wrap;html=1;align=center;" vertex="1" parent="1">
          <mxGeometry x="350" y="565" width="40" height="40" as="geometry" />
        </mxCell>
        <mxCell id="-HPxGVENbK4zKSCoRWja-17" value="" style="shape=link;html=1;rounded=0;exitX=0.5;exitY=0;exitDx=0;exitDy=0;entryX=0.5;entryY=1;entryDx=0;entryDy=0;" edge="1" parent="1" source="-HPxGVENbK4zKSCoRWja-1" target="-HPxGVENbK4zKSCoRWja-16">
          <mxGeometry relative="1" as="geometry">
            <mxPoint x="290" y="380" as="sourcePoint" />
            <mxPoint x="450" y="380" as="targetPoint" />
          </mxGeometry>
        </mxCell>
        <mxCell id="-HPxGVENbK4zKSCoRWja-18" value="" style="resizable=0;html=1;whiteSpace=wrap;align=right;verticalAlign=bottom;" connectable="0" vertex="1" parent="-HPxGVENbK4zKSCoRWja-17">
          <mxGeometry x="1" relative="1" as="geometry" />
        </mxCell>
        <mxCell id="-HPxGVENbK4zKSCoRWja-19" value="Administrador" style="whiteSpace=wrap;html=1;align=center;" vertex="1" parent="1">
          <mxGeometry x="20" y="422.5" width="100" height="35" as="geometry" />
        </mxCell>
        <mxCell id="-HPxGVENbK4zKSCoRWja-20" value="&lt;u&gt;id&lt;/u&gt;" style="ellipse;whiteSpace=wrap;html=1;" vertex="1" parent="1">
          <mxGeometry x="-30" y="435" width="30" height="17.5" as="geometry" />
        </mxCell>
        <mxCell id="-HPxGVENbK4zKSCoRWja-21" value="PK" style="text;html=1;align=center;verticalAlign=middle;resizable=0;points=[];autosize=1;strokeColor=none;fillColor=none;" vertex="1" parent="1">
          <mxGeometry x="-60" y="425" width="40" height="30" as="geometry" />
        </mxCell>
        <mxCell id="-HPxGVENbK4zKSCoRWja-22" value="username" style="ellipse;whiteSpace=wrap;html=1;" vertex="1" parent="1">
          <mxGeometry x="430" y="695" width="60" height="20" as="geometry" />
        </mxCell>
        <mxCell id="-HPxGVENbK4zKSCoRWja-23" value="" style="endArrow=none;html=1;rounded=0;exitX=1;exitY=1;exitDx=0;exitDy=0;entryX=0;entryY=0.5;entryDx=0;entryDy=0;" edge="1" parent="1" source="-HPxGVENbK4zKSCoRWja-1" target="-HPxGVENbK4zKSCoRWja-22">
          <mxGeometry relative="1" as="geometry">
            <mxPoint x="430" y="690" as="sourcePoint" />
            <mxPoint x="440" y="695" as="targetPoint" />
          </mxGeometry>
        </mxCell>
        <mxCell id="-HPxGVENbK4zKSCoRWja-24" value="M UK3" style="text;html=1;align=center;verticalAlign=middle;resizable=0;points=[];autosize=1;strokeColor=none;fillColor=none;" vertex="1" parent="1">
          <mxGeometry x="480" y="690" width="60" height="30" as="geometry" />
        </mxCell>
        <mxCell id="-HPxGVENbK4zKSCoRWja-25" value="" style="endArrow=none;html=1;rounded=0;exitX=1;exitY=0.5;exitDx=0;exitDy=0;entryX=0;entryY=0.5;entryDx=0;entryDy=0;" edge="1" parent="1" source="-HPxGVENbK4zKSCoRWja-20" target="-HPxGVENbK4zKSCoRWja-19">
          <mxGeometry relative="1" as="geometry">
            <mxPoint x="60" y="442.5" as="sourcePoint" />
            <mxPoint x="220" y="442.5" as="targetPoint" />
          </mxGeometry>
        </mxCell>
        <mxCell id="-HPxGVENbK4zKSCoRWja-26" value="" style="endArrow=none;html=1;rounded=0;exitX=0.5;exitY=1;exitDx=0;exitDy=0;entryX=0;entryY=0.5;entryDx=0;entryDy=0;" edge="1" parent="1" source="-HPxGVENbK4zKSCoRWja-19" target="-HPxGVENbK4zKSCoRWja-16">
          <mxGeometry relative="1" as="geometry">
            <mxPoint x="140" y="460" as="sourcePoint" />
            <mxPoint x="300" y="460" as="targetPoint" />
            <Array as="points">
              <mxPoint x="70" y="585" />
            </Array>
          </mxGeometry>
        </mxCell>
        <mxCell id="-HPxGVENbK4zKSCoRWja-27" value="FuncionarioPrefeitura" style="whiteSpace=wrap;html=1;" vertex="1" parent="1">
          <mxGeometry x="307.5" y="360" width="125" height="40" as="geometry" />
        </mxCell>
        <mxCell id="-HPxGVENbK4zKSCoRWja-28" value="" style="endArrow=none;html=1;rounded=0;exitX=0.5;exitY=0;exitDx=0;exitDy=0;entryX=0.5;entryY=1;entryDx=0;entryDy=0;" edge="1" parent="1" source="-HPxGVENbK4zKSCoRWja-16" target="-HPxGVENbK4zKSCoRWja-27">
          <mxGeometry relative="1" as="geometry">
            <mxPoint x="290" y="460" as="sourcePoint" />
            <mxPoint x="450" y="460" as="targetPoint" />
          </mxGeometry>
        </mxCell>
        <mxCell id="-HPxGVENbK4zKSCoRWja-29" value="&lt;div&gt;&lt;span style=&quot;background-color: transparent; color: light-dark(rgb(0, 0, 0), rgb(255, 255, 255));&quot;&gt;Denunciante&lt;/span&gt;&lt;/div&gt;" style="whiteSpace=wrap;html=1;" vertex="1" parent="1">
          <mxGeometry x="980" y="412.5" width="120" height="35" as="geometry" />
        </mxCell>
        <mxCell id="-HPxGVENbK4zKSCoRWja-30" value="" style="endArrow=none;html=1;rounded=0;exitX=1;exitY=0.5;exitDx=0;exitDy=0;entryX=0.5;entryY=1;entryDx=0;entryDy=0;" edge="1" parent="1" source="-HPxGVENbK4zKSCoRWja-16" target="-HPxGVENbK4zKSCoRWja-29">
          <mxGeometry relative="1" as="geometry">
            <mxPoint x="400" y="460" as="sourcePoint" />
            <mxPoint x="560" y="460" as="targetPoint" />
            <Array as="points">
              <mxPoint x="740" y="585" />
              <mxPoint x="1040" y="585" />
            </Array>
          </mxGeometry>
        </mxCell>
        <mxCell id="-HPxGVENbK4zKSCoRWja-31" value="&lt;u&gt;id&lt;/u&gt;" style="ellipse;whiteSpace=wrap;html=1;" vertex="1" parent="1">
          <mxGeometry x="445" y="411.25" width="30" height="20" as="geometry" />
        </mxCell>
        <mxCell id="-HPxGVENbK4zKSCoRWja-32" value="&lt;u&gt;id&lt;/u&gt;" style="ellipse;whiteSpace=wrap;html=1;" vertex="1" parent="1">
          <mxGeometry x="1110" y="405" width="30" height="20" as="geometry" />
        </mxCell>
        <mxCell id="-HPxGVENbK4zKSCoRWja-34" value="" style="shape=link;html=1;rounded=0;exitX=1;exitY=0.5;exitDx=0;exitDy=0;entryX=0;entryY=0.5;entryDx=0;entryDy=0;" edge="1" parent="1" source="-HPxGVENbK4zKSCoRWja-39" target="-HPxGVENbK4zKSCoRWja-27">
          <mxGeometry relative="1" as="geometry">
            <mxPoint x="240" y="440" as="sourcePoint" />
            <mxPoint x="220" y="360" as="targetPoint" />
          </mxGeometry>
        </mxCell>
        <mxCell id="-HPxGVENbK4zKSCoRWja-35" value="N" style="resizable=0;html=1;whiteSpace=wrap;align=right;verticalAlign=bottom;" connectable="0" vertex="1" parent="-HPxGVENbK4zKSCoRWja-34">
          <mxGeometry x="1" relative="1" as="geometry">
            <mxPoint x="-17" y="10" as="offset" />
          </mxGeometry>
        </mxCell>
        <mxCell id="-HPxGVENbK4zKSCoRWja-36" value="" style="endArrow=none;html=1;rounded=0;exitX=1;exitY=0.5;exitDx=0;exitDy=0;entryX=0;entryY=0.5;entryDx=0;entryDy=0;" edge="1" parent="1" source="-HPxGVENbK4zKSCoRWja-19" target="-HPxGVENbK4zKSCoRWja-39">
          <mxGeometry relative="1" as="geometry">
            <mxPoint x="60" y="360" as="sourcePoint" />
            <mxPoint x="120" y="430" as="targetPoint" />
          </mxGeometry>
        </mxCell>
        <mxCell id="-HPxGVENbK4zKSCoRWja-37" value="N" style="text;html=1;align=center;verticalAlign=middle;resizable=0;points=[];autosize=1;strokeColor=none;fillColor=none;" vertex="1" parent="1">
          <mxGeometry x="140" y="410" width="30" height="30" as="geometry" />
        </mxCell>
        <mxCell id="-HPxGVENbK4zKSCoRWja-38" value="&lt;u&gt;municipio&lt;/u&gt;" style="ellipse;whiteSpace=wrap;html=1;" vertex="1" parent="1">
          <mxGeometry x="230" y="480" width="60" height="20" as="geometry" />
        </mxCell>
        <mxCell id="-HPxGVENbK4zKSCoRWja-39" value="cadastra" style="shape=associativeEntity;whiteSpace=wrap;html=1;align=center;" vertex="1" parent="1">
          <mxGeometry x="180" y="410" width="70" height="60" as="geometry" />
        </mxCell>
        <mxCell id="-HPxGVENbK4zKSCoRWja-40" value="secretaria" style="ellipse;whiteSpace=wrap;html=1;" vertex="1" parent="1">
          <mxGeometry x="230" y="500" width="60" height="20" as="geometry" />
        </mxCell>
        <mxCell id="-HPxGVENbK4zKSCoRWja-41" value="" style="endArrow=none;html=1;rounded=0;exitX=0.5;exitY=1;exitDx=0;exitDy=0;entryX=0;entryY=0.5;entryDx=0;entryDy=0;" edge="1" parent="1" source="-HPxGVENbK4zKSCoRWja-39" target="-HPxGVENbK4zKSCoRWja-38">
          <mxGeometry relative="1" as="geometry">
            <mxPoint x="230" y="360" as="sourcePoint" />
            <mxPoint x="390" y="360" as="targetPoint" />
          </mxGeometry>
        </mxCell>
        <mxCell id="-HPxGVENbK4zKSCoRWja-42" value="" style="endArrow=none;html=1;rounded=0;exitX=0.5;exitY=1;exitDx=0;exitDy=0;entryX=0;entryY=0.5;entryDx=0;entryDy=0;" edge="1" parent="1" source="-HPxGVENbK4zKSCoRWja-39" target="-HPxGVENbK4zKSCoRWja-40">
          <mxGeometry relative="1" as="geometry">
            <mxPoint x="230" y="360" as="sourcePoint" />
            <mxPoint x="390" y="360" as="targetPoint" />
          </mxGeometry>
        </mxCell>
        <mxCell id="-HPxGVENbK4zKSCoRWja-43" value="" style="endArrow=none;html=1;rounded=0;exitX=1;exitY=0.5;exitDx=0;exitDy=0;entryX=0;entryY=0.5;entryDx=0;entryDy=0;" edge="1" parent="1" source="-HPxGVENbK4zKSCoRWja-29" target="-HPxGVENbK4zKSCoRWja-32">
          <mxGeometry relative="1" as="geometry">
            <mxPoint x="950" y="262.5" as="sourcePoint" />
            <mxPoint x="1110" y="262.5" as="targetPoint" />
          </mxGeometry>
        </mxCell>
        <mxCell id="-HPxGVENbK4zKSCoRWja-44" value="" style="endArrow=none;html=1;rounded=0;exitX=0.75;exitY=1;exitDx=0;exitDy=0;entryX=0;entryY=0.5;entryDx=0;entryDy=0;" edge="1" parent="1" source="-HPxGVENbK4zKSCoRWja-27" target="-HPxGVENbK4zKSCoRWja-31">
          <mxGeometry relative="1" as="geometry">
            <mxPoint x="375.2500000000002" y="412.5" as="sourcePoint" />
            <mxPoint x="667.75" y="426.25" as="targetPoint" />
          </mxGeometry>
        </mxCell>
        <mxCell id="-HPxGVENbK4zKSCoRWja-45" value="PK" style="text;html=1;align=center;verticalAlign=middle;resizable=0;points=[];autosize=1;strokeColor=none;fillColor=none;" vertex="1" parent="1">
          <mxGeometry x="475" y="406.25" width="40" height="30" as="geometry" />
        </mxCell>
        <mxCell id="-HPxGVENbK4zKSCoRWja-46" value="PK" style="text;html=1;align=center;verticalAlign=middle;resizable=0;points=[];autosize=1;strokeColor=none;fillColor=none;" vertex="1" parent="1">
          <mxGeometry x="1130" y="400" width="40" height="30" as="geometry" />
        </mxCell>
        <mxCell id="-HPxGVENbK4zKSCoRWja-52" value="" style="endArrow=none;html=1;rounded=0;exitX=1;exitY=0.5;exitDx=0;exitDy=0;entryX=0;entryY=0.5;entryDx=0;entryDy=0;" edge="1" parent="1" source="-HPxGVENbK4zKSCoRWja-29" target="-HPxGVENbK4zKSCoRWja-95">
          <mxGeometry relative="1" as="geometry">
            <mxPoint x="920" y="262.5" as="sourcePoint" />
            <mxPoint x="1110" y="483" as="targetPoint" />
          </mxGeometry>
        </mxCell>
        <mxCell id="-HPxGVENbK4zKSCoRWja-53" value="Denúncia" style="whiteSpace=wrap;html=1;" vertex="1" parent="1">
          <mxGeometry x="310" y="-20" width="120" height="60" as="geometry" />
        </mxCell>
        <mxCell id="-HPxGVENbK4zKSCoRWja-54" value="Acompanha" style="shape=associativeEntity;whiteSpace=wrap;html=1;align=center;" vertex="1" parent="1">
          <mxGeometry x="330" y="220" width="80" height="50" as="geometry" />
        </mxCell>
        <mxCell id="-HPxGVENbK4zKSCoRWja-55" value="status" style="ellipse;whiteSpace=wrap;html=1;" vertex="1" parent="1">
          <mxGeometry x="225" y="235" width="50" height="20" as="geometry" />
        </mxCell>
        <mxCell id="-HPxGVENbK4zKSCoRWja-56" value="[&#39;Pendente&#39;,&#39;Em analise&#39;,&#39;Em andamento&#39;,&#39;Resolvido&#39;] CK" style="text;html=1;align=center;verticalAlign=middle;resizable=0;points=[];autosize=1;strokeColor=none;fillColor=none;" vertex="1" parent="1">
          <mxGeometry x="10" y="210" width="320" height="30" as="geometry" />
        </mxCell>
        <mxCell id="-HPxGVENbK4zKSCoRWja-57" value="" style="endArrow=none;html=1;rounded=0;entryX=0;entryY=0.5;entryDx=0;entryDy=0;exitX=1;exitY=0.5;exitDx=0;exitDy=0;" edge="1" parent="1" source="-HPxGVENbK4zKSCoRWja-55" target="-HPxGVENbK4zKSCoRWja-54">
          <mxGeometry relative="1" as="geometry">
            <mxPoint x="273" y="280" as="sourcePoint" />
            <mxPoint x="307.5" y="380" as="targetPoint" />
          </mxGeometry>
        </mxCell>
        <mxCell id="-HPxGVENbK4zKSCoRWja-58" value="" style="endArrow=none;html=1;rounded=0;exitX=0.5;exitY=0;exitDx=0;exitDy=0;entryX=0.5;entryY=1;entryDx=0;entryDy=0;" edge="1" parent="1" source="-HPxGVENbK4zKSCoRWja-27" target="-HPxGVENbK4zKSCoRWja-54">
          <mxGeometry relative="1" as="geometry">
            <mxPoint x="-140" y="370" as="sourcePoint" />
            <mxPoint x="20" y="370" as="targetPoint" />
          </mxGeometry>
        </mxCell>
        <mxCell id="-HPxGVENbK4zKSCoRWja-59" value="N" style="text;html=1;align=center;verticalAlign=middle;resizable=0;points=[];autosize=1;strokeColor=none;fillColor=none;" vertex="1" parent="1">
          <mxGeometry x="367.5" y="280" width="30" height="30" as="geometry" />
        </mxCell>
        <mxCell id="-HPxGVENbK4zKSCoRWja-60" value="" style="endArrow=none;html=1;rounded=0;exitX=0.5;exitY=0;exitDx=0;exitDy=0;entryX=0.5;entryY=1;entryDx=0;entryDy=0;" edge="1" parent="1" source="-HPxGVENbK4zKSCoRWja-54" target="-HPxGVENbK4zKSCoRWja-53">
          <mxGeometry relative="1" as="geometry">
            <mxPoint x="140" y="370" as="sourcePoint" />
            <mxPoint x="300" y="370" as="targetPoint" />
            <Array as="points" />
          </mxGeometry>
        </mxCell>
        <mxCell id="-HPxGVENbK4zKSCoRWja-61" value="N" style="text;html=1;align=center;verticalAlign=middle;resizable=0;points=[];autosize=1;strokeColor=none;fillColor=none;" vertex="1" parent="1">
          <mxGeometry x="367.5" y="190" width="30" height="30" as="geometry" />
        </mxCell>
        <mxCell id="-HPxGVENbK4zKSCoRWja-62" value="Secretaria" style="whiteSpace=wrap;html=1;" vertex="1" parent="1">
          <mxGeometry x="810" y="180" width="90" height="40" as="geometry" />
        </mxCell>
        <mxCell id="-HPxGVENbK4zKSCoRWja-63" value="Trabalha em" style="rhombus;whiteSpace=wrap;html=1;" vertex="1" parent="1">
          <mxGeometry x="815" y="290" width="80" height="60" as="geometry" />
        </mxCell>
        <mxCell id="-HPxGVENbK4zKSCoRWja-64" value="" style="endArrow=none;html=1;rounded=0;exitX=1;exitY=0.5;exitDx=0;exitDy=0;entryX=0.5;entryY=1;entryDx=0;entryDy=0;" edge="1" parent="1" source="-HPxGVENbK4zKSCoRWja-27" target="-HPxGVENbK4zKSCoRWja-63">
          <mxGeometry relative="1" as="geometry">
            <mxPoint x="300" y="370" as="sourcePoint" />
            <mxPoint x="460" y="370" as="targetPoint" />
            <Array as="points">
              <mxPoint x="855" y="380" />
            </Array>
          </mxGeometry>
        </mxCell>
        <mxCell id="-HPxGVENbK4zKSCoRWja-65" value="" style="endArrow=none;html=1;rounded=0;exitX=0.5;exitY=1;exitDx=0;exitDy=0;entryX=0.5;entryY=0;entryDx=0;entryDy=0;" edge="1" parent="1" source="-HPxGVENbK4zKSCoRWja-62" target="-HPxGVENbK4zKSCoRWja-63">
          <mxGeometry relative="1" as="geometry">
            <mxPoint x="625" y="370" as="sourcePoint" />
            <mxPoint x="785" y="370" as="targetPoint" />
          </mxGeometry>
        </mxCell>
        <mxCell id="-HPxGVENbK4zKSCoRWja-66" value="1" style="text;html=1;align=center;verticalAlign=middle;resizable=0;points=[];autosize=1;strokeColor=none;fillColor=none;" vertex="1" parent="1">
          <mxGeometry x="865" y="270" width="30" height="30" as="geometry" />
        </mxCell>
        <mxCell id="-HPxGVENbK4zKSCoRWja-67" value="N" style="text;html=1;align=center;verticalAlign=middle;resizable=0;points=[];autosize=1;strokeColor=none;fillColor=none;" vertex="1" parent="1">
          <mxGeometry x="865" y="350" width="30" height="30" as="geometry" />
        </mxCell>
        <mxCell id="-HPxGVENbK4zKSCoRWja-69" value="id" style="ellipse;whiteSpace=wrap;html=1;" vertex="1" parent="1">
          <mxGeometry x="915" y="210" width="30" height="20" as="geometry" />
        </mxCell>
        <mxCell id="-HPxGVENbK4zKSCoRWja-70" value="PK" style="text;html=1;align=center;verticalAlign=middle;resizable=0;points=[];autosize=1;strokeColor=none;fillColor=none;" vertex="1" parent="1">
          <mxGeometry x="940" y="205" width="40" height="30" as="geometry" />
        </mxCell>
        <mxCell id="-HPxGVENbK4zKSCoRWja-71" value="Nome" style="ellipse;whiteSpace=wrap;html=1;" vertex="1" parent="1">
          <mxGeometry x="915" y="230" width="50" height="20" as="geometry" />
        </mxCell>
        <mxCell id="-HPxGVENbK4zKSCoRWja-72" value="M" style="text;html=1;align=center;verticalAlign=middle;resizable=0;points=[];autosize=1;strokeColor=none;fillColor=none;" vertex="1" parent="1">
          <mxGeometry x="965" y="225" width="30" height="30" as="geometry" />
        </mxCell>
        <mxCell id="-HPxGVENbK4zKSCoRWja-75" value="" style="endArrow=none;html=1;rounded=0;exitX=0.913;exitY=1.029;exitDx=0;exitDy=0;exitPerimeter=0;entryX=0;entryY=0.5;entryDx=0;entryDy=0;" edge="1" parent="1" source="-HPxGVENbK4zKSCoRWja-62" target="-HPxGVENbK4zKSCoRWja-71">
          <mxGeometry relative="1" as="geometry">
            <mxPoint x="925" y="370" as="sourcePoint" />
            <mxPoint x="1085" y="370" as="targetPoint" />
          </mxGeometry>
        </mxCell>
        <mxCell id="-HPxGVENbK4zKSCoRWja-76" value="" style="endArrow=none;html=1;rounded=0;exitX=1;exitY=1;exitDx=0;exitDy=0;entryX=0;entryY=0.5;entryDx=0;entryDy=0;" edge="1" parent="1" source="-HPxGVENbK4zKSCoRWja-62" target="-HPxGVENbK4zKSCoRWja-69">
          <mxGeometry relative="1" as="geometry">
            <mxPoint x="925" y="370" as="sourcePoint" />
            <mxPoint x="925" y="270" as="targetPoint" />
          </mxGeometry>
        </mxCell>
        <mxCell id="-HPxGVENbK4zKSCoRWja-77" value="é de" style="rhombus;whiteSpace=wrap;html=1;" vertex="1" parent="1">
          <mxGeometry x="505" y="260" width="80" height="80" as="geometry" />
        </mxCell>
        <mxCell id="-HPxGVENbK4zKSCoRWja-78" value="Municipio" style="whiteSpace=wrap;html=1;" vertex="1" parent="1">
          <mxGeometry x="495" y="180" width="100" height="40" as="geometry" />
        </mxCell>
        <mxCell id="-HPxGVENbK4zKSCoRWja-79" value="" style="endArrow=none;html=1;rounded=0;exitX=1;exitY=0.25;exitDx=0;exitDy=0;entryX=0.5;entryY=1;entryDx=0;entryDy=0;" edge="1" parent="1" source="-HPxGVENbK4zKSCoRWja-27" target="-HPxGVENbK4zKSCoRWja-77">
          <mxGeometry relative="1" as="geometry">
            <mxPoint x="430" y="400" as="sourcePoint" />
            <mxPoint x="510" y="370" as="targetPoint" />
            <Array as="points">
              <mxPoint x="545" y="370" />
            </Array>
          </mxGeometry>
        </mxCell>
        <mxCell id="-HPxGVENbK4zKSCoRWja-80" value="" style="endArrow=none;html=1;rounded=0;exitX=0.5;exitY=1;exitDx=0;exitDy=0;entryX=0.5;entryY=0;entryDx=0;entryDy=0;" edge="1" parent="1" source="-HPxGVENbK4zKSCoRWja-78" target="-HPxGVENbK4zKSCoRWja-77">
          <mxGeometry relative="1" as="geometry">
            <mxPoint x="465" y="400" as="sourcePoint" />
            <mxPoint x="625" y="400" as="targetPoint" />
          </mxGeometry>
        </mxCell>
        <mxCell id="-HPxGVENbK4zKSCoRWja-81" value="id" style="ellipse;whiteSpace=wrap;html=1;" vertex="1" parent="1">
          <mxGeometry x="595" y="220" width="30" height="20" as="geometry" />
        </mxCell>
        <mxCell id="-HPxGVENbK4zKSCoRWja-82" value="" style="endArrow=none;html=1;rounded=0;entryX=0;entryY=0.5;entryDx=0;entryDy=0;exitX=0.913;exitY=1.008;exitDx=0;exitDy=0;exitPerimeter=0;" edge="1" parent="1" source="-HPxGVENbK4zKSCoRWja-78" target="-HPxGVENbK4zKSCoRWja-81">
          <mxGeometry relative="1" as="geometry">
            <mxPoint x="584" y="222" as="sourcePoint" />
            <mxPoint x="650" y="400" as="targetPoint" />
          </mxGeometry>
        </mxCell>
        <mxCell id="-HPxGVENbK4zKSCoRWja-83" value="nome" style="ellipse;whiteSpace=wrap;html=1;" vertex="1" parent="1">
          <mxGeometry x="595" y="240" width="40" height="20" as="geometry" />
        </mxCell>
        <mxCell id="-HPxGVENbK4zKSCoRWja-84" value="estado" style="ellipse;whiteSpace=wrap;html=1;" vertex="1" parent="1">
          <mxGeometry x="595" y="260" width="40" height="20" as="geometry" />
        </mxCell>
        <mxCell id="-HPxGVENbK4zKSCoRWja-85" value="" style="endArrow=none;html=1;rounded=0;exitX=0.85;exitY=1;exitDx=0;exitDy=0;exitPerimeter=0;entryX=0;entryY=0.5;entryDx=0;entryDy=0;" edge="1" parent="1" source="-HPxGVENbK4zKSCoRWja-78" target="-HPxGVENbK4zKSCoRWja-83">
          <mxGeometry relative="1" as="geometry">
            <mxPoint x="490" y="400" as="sourcePoint" />
            <mxPoint x="650" y="400" as="targetPoint" />
          </mxGeometry>
        </mxCell>
        <mxCell id="-HPxGVENbK4zKSCoRWja-86" value="" style="endArrow=none;html=1;rounded=0;exitX=0.75;exitY=1;exitDx=0;exitDy=0;entryX=0;entryY=0.5;entryDx=0;entryDy=0;" edge="1" parent="1" source="-HPxGVENbK4zKSCoRWja-78" target="-HPxGVENbK4zKSCoRWja-84">
          <mxGeometry relative="1" as="geometry">
            <mxPoint x="490" y="400" as="sourcePoint" />
            <mxPoint x="650" y="400" as="targetPoint" />
          </mxGeometry>
        </mxCell>
        <mxCell id="-HPxGVENbK4zKSCoRWja-87" value="Pertence" style="shape=associativeEntity;whiteSpace=wrap;html=1;align=center;" vertex="1" parent="1">
          <mxGeometry x="660" y="170" width="90" height="60" as="geometry" />
        </mxCell>
        <mxCell id="-HPxGVENbK4zKSCoRWja-88" value="" style="endArrow=none;html=1;rounded=0;exitX=1;exitY=0.5;exitDx=0;exitDy=0;entryX=0;entryY=0.5;entryDx=0;entryDy=0;" edge="1" parent="1" source="-HPxGVENbK4zKSCoRWja-78" target="-HPxGVENbK4zKSCoRWja-87">
          <mxGeometry relative="1" as="geometry">
            <mxPoint x="550" y="420" as="sourcePoint" />
            <mxPoint x="710" y="420" as="targetPoint" />
          </mxGeometry>
        </mxCell>
        <mxCell id="-HPxGVENbK4zKSCoRWja-89" value="1" style="text;html=1;align=center;verticalAlign=middle;resizable=0;points=[];autosize=1;strokeColor=none;fillColor=none;" vertex="1" parent="1">
          <mxGeometry x="635" y="170" width="30" height="30" as="geometry" />
        </mxCell>
        <mxCell id="-HPxGVENbK4zKSCoRWja-90" value="N" style="text;html=1;align=center;verticalAlign=middle;resizable=0;points=[];autosize=1;strokeColor=none;fillColor=none;" vertex="1" parent="1">
          <mxGeometry x="750" y="170" width="30" height="30" as="geometry" />
        </mxCell>
        <mxCell id="-HPxGVENbK4zKSCoRWja-91" value="" style="endArrow=none;html=1;rounded=0;exitX=1;exitY=0.5;exitDx=0;exitDy=0;entryX=0.5;entryY=0;entryDx=0;entryDy=0;" edge="1" parent="1" source="-HPxGVENbK4zKSCoRWja-53" target="-HPxGVENbK4zKSCoRWja-96">
          <mxGeometry relative="1" as="geometry">
            <mxPoint x="490" y="270" as="sourcePoint" />
            <mxPoint x="545" y="40" as="targetPoint" />
            <Array as="points">
              <mxPoint x="545" y="10" />
            </Array>
          </mxGeometry>
        </mxCell>
        <mxCell id="-HPxGVENbK4zKSCoRWja-92" value="" style="endArrow=none;html=1;rounded=0;entryX=0.5;entryY=0;entryDx=0;entryDy=0;exitX=0.5;exitY=1;exitDx=0;exitDy=0;" edge="1" parent="1" source="-HPxGVENbK4zKSCoRWja-96" target="-HPxGVENbK4zKSCoRWja-78">
          <mxGeometry relative="1" as="geometry">
            <mxPoint x="545" y="110" as="sourcePoint" />
            <mxPoint x="650" y="270" as="targetPoint" />
          </mxGeometry>
        </mxCell>
        <mxCell id="-HPxGVENbK4zKSCoRWja-93" value="1" style="text;html=1;align=center;verticalAlign=middle;resizable=0;points=[];autosize=1;strokeColor=none;fillColor=none;" vertex="1" parent="1">
          <mxGeometry x="520" y="120" width="30" height="30" as="geometry" />
        </mxCell>
        <mxCell id="-HPxGVENbK4zKSCoRWja-94" value="N" style="text;html=1;align=center;verticalAlign=middle;resizable=0;points=[];autosize=1;strokeColor=none;fillColor=none;" vertex="1" parent="1">
          <mxGeometry x="520" y="20" width="30" height="30" as="geometry" />
        </mxCell>
        <mxCell id="-HPxGVENbK4zKSCoRWja-95" value="endereco_residencial" style="ellipse;shape=doubleEllipse;margin=3;whiteSpace=wrap;html=1;align=center;" vertex="1" parent="1">
          <mxGeometry x="1110" y="436.25" width="130" height="32.5" as="geometry" />
        </mxCell>
        <mxCell id="-HPxGVENbK4zKSCoRWja-96" value="Ocorre em" style="shape=associativeEntity;whiteSpace=wrap;html=1;align=center;" vertex="1" parent="1">
          <mxGeometry x="500" y="50" width="90" height="60" as="geometry" />
        </mxCell>
        <mxCell id="-HPxGVENbK4zKSCoRWja-97" value="PK" style="text;html=1;align=center;verticalAlign=middle;resizable=0;points=[];autosize=1;strokeColor=none;fillColor=none;" vertex="1" parent="1">
          <mxGeometry x="225" y="-30" width="40" height="30" as="geometry" />
        </mxCell>
        <mxCell id="-HPxGVENbK4zKSCoRWja-98" value="id" style="ellipse;whiteSpace=wrap;html=1;" vertex="1" parent="1">
          <mxGeometry x="260" y="-25" width="30" height="20" as="geometry" />
        </mxCell>
        <mxCell id="-HPxGVENbK4zKSCoRWja-99" value="M" style="text;html=1;align=center;verticalAlign=middle;resizable=0;points=[];autosize=1;strokeColor=none;fillColor=none;" vertex="1" parent="1">
          <mxGeometry x="200" y="-10" width="30" height="30" as="geometry" />
        </mxCell>
        <mxCell id="-HPxGVENbK4zKSCoRWja-100" value="descricao" style="ellipse;whiteSpace=wrap;html=1;" vertex="1" parent="1">
          <mxGeometry x="227.5" y="-5" width="65" height="20" as="geometry" />
        </mxCell>
        <mxCell id="-HPxGVENbK4zKSCoRWja-101" value="data_criacao" style="ellipse;whiteSpace=wrap;html=1;" vertex="1" parent="1">
          <mxGeometry x="212.5" y="15" width="80" height="20" as="geometry" />
        </mxCell>
        <mxCell id="-HPxGVENbK4zKSCoRWja-102" value="M" style="text;html=1;align=center;verticalAlign=middle;resizable=0;points=[];autosize=1;strokeColor=none;fillColor=none;" vertex="1" parent="1">
          <mxGeometry x="182.5" y="10" width="30" height="30" as="geometry" />
        </mxCell>
        <mxCell id="-HPxGVENbK4zKSCoRWja-105" value="endereco" style="ellipse;shape=doubleEllipse;margin=3;whiteSpace=wrap;html=1;align=center;" vertex="1" parent="1">
          <mxGeometry x="215" y="42.5" width="75" height="25" as="geometry" />
        </mxCell>
        <mxCell id="-HPxGVENbK4zKSCoRWja-106" value="foto/video" style="ellipse;whiteSpace=wrap;html=1;" vertex="1" parent="1">
          <mxGeometry x="220" y="67.5" width="70" height="20" as="geometry" />
        </mxCell>
        <mxCell id="-HPxGVENbK4zKSCoRWja-107" value="M" style="text;html=1;align=center;verticalAlign=middle;resizable=0;points=[];autosize=1;strokeColor=none;fillColor=none;" vertex="1" parent="1">
          <mxGeometry x="180" y="40" width="30" height="30" as="geometry" />
        </mxCell>
        <mxCell id="-HPxGVENbK4zKSCoRWja-108" value="&lt;u&gt;municipio_id&lt;/u&gt;" style="ellipse;whiteSpace=wrap;html=1;" vertex="1" parent="1">
          <mxGeometry x="210" y="87.5" width="80" height="20" as="geometry" />
        </mxCell>
        <mxCell id="-HPxGVENbK4zKSCoRWja-109" value="" style="endArrow=none;html=1;rounded=0;exitX=1;exitY=0.5;exitDx=0;exitDy=0;entryX=-0.017;entryY=0.411;entryDx=0;entryDy=0;entryPerimeter=0;" edge="1" parent="1" source="-HPxGVENbK4zKSCoRWja-100" target="-HPxGVENbK4zKSCoRWja-53">
          <mxGeometry relative="1" as="geometry">
            <mxPoint x="350" y="100" as="sourcePoint" />
            <mxPoint x="510" y="100" as="targetPoint" />
          </mxGeometry>
        </mxCell>
        <mxCell id="-HPxGVENbK4zKSCoRWja-110" value="" style="endArrow=none;html=1;rounded=0;exitX=1;exitY=0.5;exitDx=0;exitDy=0;entryX=0;entryY=0.75;entryDx=0;entryDy=0;" edge="1" parent="1" source="-HPxGVENbK4zKSCoRWja-101" target="-HPxGVENbK4zKSCoRWja-53">
          <mxGeometry relative="1" as="geometry">
            <mxPoint x="350" y="100" as="sourcePoint" />
            <mxPoint x="510" y="100" as="targetPoint" />
          </mxGeometry>
        </mxCell>
        <mxCell id="-HPxGVENbK4zKSCoRWja-112" value="" style="endArrow=none;html=1;rounded=0;exitX=1;exitY=0.5;exitDx=0;exitDy=0;entryX=0.25;entryY=1;entryDx=0;entryDy=0;" edge="1" parent="1" source="-HPxGVENbK4zKSCoRWja-105" target="-HPxGVENbK4zKSCoRWja-53">
          <mxGeometry relative="1" as="geometry">
            <mxPoint x="350" y="100" as="sourcePoint" />
            <mxPoint x="510" y="100" as="targetPoint" />
          </mxGeometry>
        </mxCell>
        <mxCell id="-HPxGVENbK4zKSCoRWja-113" value="" style="endArrow=none;html=1;rounded=0;exitX=1;exitY=0.5;exitDx=0;exitDy=0;entryX=0.386;entryY=1.022;entryDx=0;entryDy=0;entryPerimeter=0;" edge="1" parent="1" source="-HPxGVENbK4zKSCoRWja-106" target="-HPxGVENbK4zKSCoRWja-53">
          <mxGeometry relative="1" as="geometry">
            <mxPoint x="350" y="100" as="sourcePoint" />
            <mxPoint x="510" y="100" as="targetPoint" />
          </mxGeometry>
        </mxCell>
        <mxCell id="-HPxGVENbK4zKSCoRWja-114" value="" style="endArrow=none;html=1;rounded=0;exitX=1;exitY=0.5;exitDx=0;exitDy=0;entryX=0.372;entryY=1.022;entryDx=0;entryDy=0;entryPerimeter=0;" edge="1" parent="1" source="-HPxGVENbK4zKSCoRWja-108" target="-HPxGVENbK4zKSCoRWja-53">
          <mxGeometry relative="1" as="geometry">
            <mxPoint x="350" y="100" as="sourcePoint" />
            <mxPoint x="510" y="100" as="targetPoint" />
          </mxGeometry>
        </mxCell>
        <mxCell id="-HPxGVENbK4zKSCoRWja-115" value="" style="endArrow=none;html=1;rounded=0;exitX=1;exitY=0.5;exitDx=0;exitDy=0;entryX=0;entryY=0.25;entryDx=0;entryDy=0;" edge="1" parent="1" source="-HPxGVENbK4zKSCoRWja-98" target="-HPxGVENbK4zKSCoRWja-53">
          <mxGeometry relative="1" as="geometry">
            <mxPoint x="350" y="100" as="sourcePoint" />
            <mxPoint x="510" y="100" as="targetPoint" />
          </mxGeometry>
        </mxCell>
        <mxCell id="-HPxGVENbK4zKSCoRWja-116" value="" style="endArrow=none;html=1;rounded=0;exitX=1;exitY=0.5;exitDx=0;exitDy=0;entryX=0;entryY=0.5;entryDx=0;entryDy=0;" edge="1" parent="1" source="-HPxGVENbK4zKSCoRWja-87" target="-HPxGVENbK4zKSCoRWja-62">
          <mxGeometry relative="1" as="geometry">
            <mxPoint x="500" y="100" as="sourcePoint" />
            <mxPoint x="660" y="100" as="targetPoint" />
          </mxGeometry>
        </mxCell>
        <mxCell id="-HPxGVENbK4zKSCoRWja-117" value="" style="endArrow=none;html=1;rounded=0;exitX=0.5;exitY=0;exitDx=0;exitDy=0;entryX=1;entryY=0.5;entryDx=0;entryDy=0;" edge="1" parent="1" source="-HPxGVENbK4zKSCoRWja-62" target="-HPxGVENbK4zKSCoRWja-121">
          <mxGeometry relative="1" as="geometry">
            <mxPoint x="500" y="100" as="sourcePoint" />
            <mxPoint x="790" y="-5" as="targetPoint" />
            <Array as="points">
              <mxPoint x="855" y="-4" />
            </Array>
          </mxGeometry>
        </mxCell>
        <mxCell id="-HPxGVENbK4zKSCoRWja-118" value="" style="endArrow=none;html=1;rounded=0;exitX=1;exitY=0.25;exitDx=0;exitDy=0;entryX=0;entryY=0.5;entryDx=0;entryDy=0;" edge="1" parent="1" source="-HPxGVENbK4zKSCoRWja-53" target="-HPxGVENbK4zKSCoRWja-121">
          <mxGeometry relative="1" as="geometry">
            <mxPoint x="500" y="100" as="sourcePoint" />
            <mxPoint x="690" y="-5" as="targetPoint" />
          </mxGeometry>
        </mxCell>
        <mxCell id="-HPxGVENbK4zKSCoRWja-119" value="1" style="text;html=1;align=center;verticalAlign=middle;resizable=0;points=[];autosize=1;strokeColor=none;fillColor=none;" vertex="1" parent="1">
          <mxGeometry x="785" y="-35" width="30" height="30" as="geometry" />
        </mxCell>
        <mxCell id="-HPxGVENbK4zKSCoRWja-120" value="N" style="text;html=1;align=center;verticalAlign=middle;resizable=0;points=[];autosize=1;strokeColor=none;fillColor=none;" vertex="1" parent="1">
          <mxGeometry x="650" y="-35" width="30" height="30" as="geometry" />
        </mxCell>
        <mxCell id="-HPxGVENbK4zKSCoRWja-121" value="Enviada para" style="shape=associativeEntity;whiteSpace=wrap;html=1;align=center;" vertex="1" parent="1">
          <mxGeometry x="680" y="-42.5" width="100" height="77.5" as="geometry" />
        </mxCell>
        <mxCell id="-HPxGVENbK4zKSCoRWja-122" value="classificação" style="ellipse;whiteSpace=wrap;html=1;" vertex="1" parent="1">
          <mxGeometry x="210" y="107.5" width="80" height="20" as="geometry" />
        </mxCell>
        <mxCell id="-HPxGVENbK4zKSCoRWja-123" value="" style="endArrow=none;html=1;rounded=0;exitX=1;exitY=0.5;exitDx=0;exitDy=0;entryX=0.341;entryY=0.993;entryDx=0;entryDy=0;entryPerimeter=0;" edge="1" parent="1" source="-HPxGVENbK4zKSCoRWja-122" target="-HPxGVENbK4zKSCoRWja-53">
          <mxGeometry width="50" height="50" relative="1" as="geometry">
            <mxPoint x="730" y="10" as="sourcePoint" />
            <mxPoint x="780" y="-40" as="targetPoint" />
          </mxGeometry>
        </mxCell>
        <mxCell id="-HPxGVENbK4zKSCoRWja-124" value="secretaria" style="ellipse;whiteSpace=wrap;html=1;" vertex="1" parent="1">
          <mxGeometry x="410" y="436.25" width="65" height="22.5" as="geometry" />
        </mxCell>
        <mxCell id="-HPxGVENbK4zKSCoRWja-128" value="" style="endArrow=none;html=1;rounded=0;exitX=0.75;exitY=1;exitDx=0;exitDy=0;entryX=0;entryY=0.5;entryDx=0;entryDy=0;" edge="1" parent="1" source="-HPxGVENbK4zKSCoRWja-27" target="-HPxGVENbK4zKSCoRWja-124">
          <mxGeometry width="50" height="50" relative="1" as="geometry">
            <mxPoint x="380" y="520" as="sourcePoint" />
            <mxPoint x="430" y="470" as="targetPoint" />
          </mxGeometry>
        </mxCell>
        <mxCell id="-HPxGVENbK4zKSCoRWja-129" value="M" style="text;html=1;align=center;verticalAlign=middle;resizable=0;points=[];autosize=1;strokeColor=none;fillColor=none;" vertex="1" parent="1">
          <mxGeometry x="475" y="431.25" width="30" height="30" as="geometry" />
        </mxCell>
        <mxCell id="-HPxGVENbK4zKSCoRWja-132" value="cpf" style="ellipse;whiteSpace=wrap;html=1;" vertex="1" parent="1">
          <mxGeometry x="430" y="775" width="40" height="20" as="geometry" />
        </mxCell>
        <mxCell id="-HPxGVENbK4zKSCoRWja-135" value="" style="endArrow=none;html=1;rounded=0;exitX=0.75;exitY=1;exitDx=0;exitDy=0;entryX=0;entryY=0.5;entryDx=0;entryDy=0;" edge="1" parent="1" source="-HPxGVENbK4zKSCoRWja-1" target="-HPxGVENbK4zKSCoRWja-132">
          <mxGeometry width="50" height="50" relative="1" as="geometry">
            <mxPoint x="350" y="530" as="sourcePoint" />
            <mxPoint x="400" y="480" as="targetPoint" />
          </mxGeometry>
        </mxCell>
        <mxCell id="-HPxGVENbK4zKSCoRWja-136" value="M UK4" style="text;html=1;align=center;verticalAlign=middle;resizable=0;points=[];autosize=1;strokeColor=none;fillColor=none;" vertex="1" parent="1">
          <mxGeometry x="460" y="770" width="60" height="30" as="geometry" />
        </mxCell>
        <mxCell id="-HPxGVENbK4zKSCoRWja-137" value="status" style="ellipse;whiteSpace=wrap;html=1;" vertex="1" parent="1">
          <mxGeometry x="240" y="127.5" width="50" height="20" as="geometry" />
        </mxCell>
        <mxCell id="-HPxGVENbK4zKSCoRWja-138" value="" style="endArrow=none;html=1;rounded=0;exitX=1;exitY=0.5;exitDx=0;exitDy=0;" edge="1" parent="1" source="-HPxGVENbK4zKSCoRWja-137">
          <mxGeometry width="50" height="50" relative="1" as="geometry">
            <mxPoint x="300" y="128" as="sourcePoint" />
            <mxPoint x="350" y="40" as="targetPoint" />
          </mxGeometry>
        </mxCell>
        <mxCell id="-HPxGVENbK4zKSCoRWja-139" value="M" style="text;html=1;align=center;verticalAlign=middle;resizable=0;points=[];autosize=1;strokeColor=none;fillColor=none;" vertex="1" parent="1">
          <mxGeometry x="210" y="122.5" width="30" height="30" as="geometry" />
        </mxCell>
        <mxCell id="-HPxGVENbK4zKSCoRWja-140" value="M" style="text;html=1;align=center;verticalAlign=middle;resizable=0;points=[];autosize=1;strokeColor=none;fillColor=none;" vertex="1" parent="1">
          <mxGeometry x="182.5" y="102.5" width="30" height="30" as="geometry" />
        </mxCell>
        <mxCell id="-HPxGVENbK4zKSCoRWja-142" value="realiza" style="rhombus;whiteSpace=wrap;html=1;" vertex="1" parent="1">
          <mxGeometry x="1000" y="-130" width="80" height="80" as="geometry" />
        </mxCell>
        <mxCell id="-HPxGVENbK4zKSCoRWja-143" value="" style="endArrow=none;html=1;rounded=0;exitX=0.5;exitY=0;exitDx=0;exitDy=0;entryX=0;entryY=0.5;entryDx=0;entryDy=0;" edge="1" parent="1" source="-HPxGVENbK4zKSCoRWja-53" target="-HPxGVENbK4zKSCoRWja-142">
          <mxGeometry width="50" height="50" relative="1" as="geometry">
            <mxPoint x="380" y="-40" as="sourcePoint" />
            <mxPoint x="430" y="-90" as="targetPoint" />
            <Array as="points">
              <mxPoint x="370" y="-90" />
            </Array>
          </mxGeometry>
        </mxCell>
        <mxCell id="-HPxGVENbK4zKSCoRWja-144" value="" style="endArrow=none;html=1;rounded=0;exitX=0.5;exitY=0;exitDx=0;exitDy=0;entryX=0.5;entryY=1;entryDx=0;entryDy=0;" edge="1" parent="1" source="-HPxGVENbK4zKSCoRWja-29" target="-HPxGVENbK4zKSCoRWja-142">
          <mxGeometry width="50" height="50" relative="1" as="geometry">
            <mxPoint x="1020" y="200" as="sourcePoint" />
            <mxPoint x="1070" y="150" as="targetPoint" />
          </mxGeometry>
        </mxCell>
        <mxCell id="-HPxGVENbK4zKSCoRWja-145" value="N" style="text;html=1;align=center;verticalAlign=middle;resizable=0;points=[];autosize=1;strokeColor=none;fillColor=none;" vertex="1" parent="1">
          <mxGeometry x="965" y="-130" width="30" height="30" as="geometry" />
        </mxCell>
        <mxCell id="-HPxGVENbK4zKSCoRWja-146" value="1" style="text;html=1;align=center;verticalAlign=middle;resizable=0;points=[];autosize=1;strokeColor=none;fillColor=none;" vertex="1" parent="1">
          <mxGeometry x="1050" y="-55" width="30" height="30" as="geometry" />
        </mxCell>
        <mxCell id="-HPxGVENbK4zKSCoRWja-147" value="1" style="text;html=1;align=center;verticalAlign=middle;resizable=0;points=[];autosize=1;strokeColor=none;fillColor=none;" vertex="1" parent="1">
          <mxGeometry x="510" y="230" width="30" height="30" as="geometry" />
        </mxCell>
        <mxCell id="-HPxGVENbK4zKSCoRWja-148" value="N" style="text;html=1;align=center;verticalAlign=middle;resizable=0;points=[];autosize=1;strokeColor=none;fillColor=none;" vertex="1" parent="1">
          <mxGeometry x="505" y="330" width="30" height="30" as="geometry" />
        </mxCell>
      </root>
    </mxGraphModel>
  </diagram>
</mxfile>
